<svg version="1.1" viewBox="0.0 0.0 230.501312335958 154.79002624671915" fill="none" stroke="none" stroke-linecap="square" stroke-miterlimit="10" xmlns:xlink="http://www.w3.org/1999/xlink" xmlns="http://www.w3.org/2000/svg"><clipPath id="p.0"><path d="m0 0l230.50131 0l0 154.79002l-230.50131 0l0 -154.79002z" clip-rule="nonzero"/></clipPath><g clip-path="url(#p.0)"><path fill="#000000" fill-opacity="0.0" d="m0 0l230.50131 0l0 154.79002l-230.50131 0z" fill-rule="evenodd"/><path fill="#aafcb8" d="m149.15738 38.183693l0 0c8.42778 -2.6527061 20.498474 11.822243 26.960632 32.33071l0 0c6.4621735 20.508461 4.8687286 39.2843 -3.5590515 41.937004l0 0c-8.42778 2.65271 -20.498459 -11.822243 -26.960632 -32.33071l0 0c-6.462158 -20.508461 -4.8687134 -39.284298 3.5590515 -41.937004z" fill-rule="evenodd"/><path stroke="#000000" stroke-width="1.0" stroke-linejoin="round" stroke-linecap="butt" d="m149.15738 38.183693l0 0c8.42778 -2.6527061 20.498474 11.822243 26.960632 32.33071l0 0c6.4621735 20.508461 4.8687286 39.2843 -3.5590515 41.937004l0 0c-8.42778 2.65271 -20.498459 -11.822243 -26.960632 -32.33071l0 0c-6.462158 -20.508461 -4.8687134 -39.284298 3.5590515 -41.937004z" fill-rule="evenodd"/><path fill="#000000" fill-opacity="0.0" d="m71.92092 80.309685l77.22834 -42.141727" fill-rule="evenodd"/><path stroke="#000000" stroke-width="1.0" stroke-linejoin="round" stroke-linecap="butt" d="m71.92092 80.309685l77.22834 -42.141727" fill-rule="evenodd"/><path fill="#000000" fill-opacity="0.0" d="m78.17289 109.30181l94.3937 3.1496124" fill-rule="evenodd"/><path stroke="#000000" stroke-width="1.0" stroke-linejoin="round" stroke-linecap="butt" d="m78.17289 109.30181l94.3937 3.1496124" fill-rule="evenodd"/><path fill="#000000" fill-opacity="0.0" d="m168.15504 40.646923l32.850403 -18.86614" fill-rule="evenodd"/><path stroke="#000000" stroke-width="1.0" stroke-linejoin="round" stroke-linecap="butt" d="m168.15504 40.646923l32.850403 -18.86614" fill-rule="evenodd"/><path fill="#000000" fill-opacity="0.0" d="m182.16406 67.89894l36.346466 -7.1181145" fill-rule="evenodd"/><path stroke="#000000" stroke-width="1.0" stroke-linejoin="round" stroke-linecap="butt" d="m182.16406 67.89894l36.346466 -7.1181145" fill-rule="evenodd"/><path fill="#000000" fill-opacity="0.0" d="m221.50131 106.28871l-37.606293 -8.283463" fill-rule="evenodd"/><path stroke="#000000" stroke-width="1.0" stroke-linejoin="round" stroke-linecap="butt" d="m221.50131 106.28871l-37.606293 -8.283463" fill-rule="evenodd"/><path fill="#000000" fill-opacity="0.0" d="m8.075898 56.496063l0 0c0 -14.663815 13.155524 -26.551182 29.383686 -26.551182l0 0c16.22816 0 29.383686 11.887367 29.383686 26.551182l0 0c0 14.663811 -13.155525 26.551178 -29.383686 26.551178l0 0c-16.22816 0 -29.383686 -11.887367 -29.383686 -26.551178z" fill-rule="evenodd"/><path stroke="#000000" stroke-width="1.0" stroke-linejoin="round" stroke-linecap="butt" d="m8.075898 56.496063l0 0c0 -14.663815 13.155524 -26.551182 29.383686 -26.551182l0 0c16.22816 0 29.383686 11.887367 29.383686 26.551182l0 0c0 14.663811 -13.155525 26.551178 -29.383686 26.551178l0 0c-16.22816 0 -29.383686 -11.887367 -29.383686 -26.551178z" fill-rule="evenodd"/><path fill="#000000" fill-opacity="0.0" d="m49.43272 83.030914l0 0c1.627079 0 3.1874504 6.604492 4.33757 18.35933c1.150116 11.754845 1.7956734 27.696228 1.7945366 44.314285l-6.132107 -0.043685913z" fill-rule="evenodd"/><path fill="#000000" fill-opacity="0.0" d="m49.43272 83.030914l0 0c1.627079 0 3.1874504 6.604492 4.33757 18.35933c1.150116 11.754845 1.7956734 27.696228 1.7945366 44.314285" fill-rule="evenodd"/><path stroke="#000000" stroke-width="1.0" stroke-linejoin="round" stroke-linecap="butt" d="m49.43272 83.030914l0 0c1.627079 0 3.1874504 6.604492 4.33757 18.35933c1.150116 11.754845 1.7956734 27.696228 1.7945366 44.314285" fill-rule="evenodd"/><path fill="#000000" fill-opacity="0.0" d="m26.116055 83.030914l0 0c-1.6270771 0 -3.1874523 6.604492 -4.3375683 18.35933c-1.1501179 11.754845 -1.7956753 27.696228 -1.7945404 44.314285l6.1321087 -0.043685913z" fill-rule="evenodd"/><path fill="#000000" fill-opacity="0.0" d="m26.116055 83.030914l0 0c-1.6270771 0 -3.1874523 6.604492 -4.3375683 18.35933c-1.1501179 11.754845 -1.7956753 27.696228 -1.7945404 44.314285" fill-rule="evenodd"/><path stroke="#000000" stroke-width="1.0" stroke-linejoin="round" stroke-linecap="butt" d="m26.116055 83.030914l0 0c-1.6270771 0 -3.1874523 6.604492 -4.3375683 18.35933c-1.1501179 11.754845 -1.7956753 27.696228 -1.7945404 44.314285" fill-rule="evenodd"/><path fill="#000000" fill-opacity="0.0" d="m78.17289 109.30181l0 0c-9.845451 -6.8970337 -12.644554 -19.87725 -6.2519684 -28.992126l17.826775 12.48819z" fill-rule="evenodd"/><path fill="#000000" fill-opacity="0.0" d="m78.17289 109.30181l0 0c-9.845451 -6.8970337 -12.644554 -19.87725 -6.2519684 -28.992126" fill-rule="evenodd"/><path stroke="#000000" stroke-width="1.0" stroke-linejoin="round" stroke-linecap="butt" d="m78.17289 109.30181l0 0c-9.845451 -6.8970337 -12.644554 -19.87725 -6.2519684 -28.992126" fill-rule="evenodd"/></g></svg>